HIERARCHY
ROOT Hips
{
	OFFSET -0.001795 -0.223333 0.028219
	CHANNELS 6 Xposition Yposition Zposition Zrotation Yrotation Xrotation 
	JOINT LeftUpLeg
	{
		OFFSET 0.069520 -0.091406 -0.006815
		CHANNELS 3 Zrotation Yrotation Xrotation
		JOINT LeftLeg
		{
			OFFSET 0.034277 -0.375199 -0.004496
			CHANNELS 3 Zrotation Yrotation Xrotation
			JOINT LeftFoot
			{
				OFFSET -0.013596 -0.397961 -0.043693
				CHANNELS 3 Zrotation Yrotation Xrotation
				JOINT LeftToe
				{
					OFFSET 0.026358 -0.055791 0.119288
					CHANNELS 3 Zrotation Yrotation Xrotation
					End Site
					{
						OFFSET 0.000000 0.000000 0.000000
					}
				}
			}
		}
	}
	JOINT RightUpLeg
	{
		OFFSET -0.067670 -0.090522 -0.004320
		CHANNELS 3 Zrotation Yrotation Xrotation
		JOINT RightLeg
		{
			OFFSET -0.038290 -0.382569 -0.008850
			CHANNELS 3 Zrotation Yrotation Xrotation
			JOINT RightFoot
			{
				OFFSET 0.015774 -0.398415 -0.042312
				CHANNELS 3 Zrotation Yrotation Xrotation
				JOINT RightToe
				{
					OFFSET -0.025372 -0.048144 0.123348
					CHANNELS 3 Zrotation Yrotation Xrotation
					End Site
					{
						OFFSET 0.000000 0.000000 0.000000
					}
				}
			}
		}
	}
	JOINT Spine
	{
		OFFSET -0.002533 0.108963 -0.026696
		CHANNELS 3 Zrotation Yrotation Xrotation
		JOINT Spine1
		{
			OFFSET 0.005487 0.135180 0.001092
			CHANNELS 3 Zrotation Yrotation Xrotation
			JOINT Spine2
			{
				OFFSET 0.001457 0.052922 0.025425
				CHANNELS 3 Zrotation Yrotation Xrotation
				JOINT Neck
				{
					OFFSET -0.002778 0.213870 -0.042857
					CHANNELS 3 Zrotation Yrotation Xrotation
					JOINT Head
					{
						OFFSET 0.005152 0.064970 0.051349
						CHANNELS 3 Zrotation Yrotation Xrotation
						End Site
						{
							OFFSET 0.000000 0.000000 0.000000
						}
					}
				}
				JOINT LeftShoulder
				{
					OFFSET 0.078845 0.121749 -0.034090
					CHANNELS 3 Zrotation Yrotation Xrotation
					JOINT LeftArm
					{
						OFFSET 0.090977 0.030469 -0.008868
						CHANNELS 3 Zrotation Yrotation Xrotation
						JOINT LeftForeArm
						{
							OFFSET 0.259612 -0.012772 -0.027456
							CHANNELS 3 Zrotation Yrotation Xrotation
							JOINT LeftHand
							{
								OFFSET 0.249234 0.008986 -0.001171
								CHANNELS 3 Zrotation Yrotation Xrotation
								End Site
								{
									OFFSET 0.000000 0.000000 0.000000
								}
							}
						}
					}
				}
				JOINT RightShoulder
				{
					OFFSET -0.081759 0.118833 -0.038615
					CHANNELS 3 Zrotation Yrotation Xrotation
					JOINT RightArm
					{
						OFFSET -0.096012 0.032551 -0.009143
						CHANNELS 3 Zrotation Yrotation Xrotation
						JOINT RightForeArm
						{
							OFFSET -0.253742 -0.013329 -0.021401
							CHANNELS 3 Zrotation Yrotation Xrotation
							JOINT RightHand
							{
								OFFSET -0.255298 0.007772 -0.005559
								CHANNELS 3 Zrotation Yrotation Xrotation
								End Site
								{
									OFFSET 0.000000 0.000000 0.000000
								}
							}
						}
					}
				}
			}
		}
	}
}
MOTION
Frames: 8
Frame Time: 0.050000
0.000000 0.988470 0.000000 2.544964 -4.704707 -7.126398 8.862533 0.591892 15.225850 -11.960746 -0.593222 -36.444474 55.507042 26.585396 115.674285 0.000000 0.000000 0.000000 -9.195607 0.091031 11.248808 12.600961 1.615855 -31.551022 -89.481360 -33.332501 116.528123 0.000000 0.000000 0.000000 4.596942 -0.115031 2.618756 0.301657 1.740504 -50.675890 -1.649295 6.124748 52.116373 15.817534 1.887371 -82.781141 0.000000 0.000000 0.000000 -14.573149 -8.761439 4.209982 -48.042306 -20.055431 -3.675366 -41.804980 31.096797 -11.684262 0.000000 0.000000 0.000000 18.388265 -2.316272 -0.602019 56.363636 13.474158 -5.672858 18.991583 -40.220752 -6.069819 0.000000 0.000000 0.000000 
-0.000305 0.975514 0.017077 2.742139 -6.992444 -6.610786 10.502843 0.670803 18.683850 -13.551505 -0.890976 -43.124154 62.692105 26.071656 120.373453 0.000000 0.000000 0.000000 -11.714688 0.624557 13.158390 15.207464 3.081340 -35.873285 -97.334894 -33.383612 118.063690 0.000000 0.000000 0.000000 3.575922 0.186938 -1.631224 4.139058 1.990787 -51.051609 -1.920319 9.588647 54.947609 19.321549 1.246759 -82.702026 0.000000 0.000000 0.000000 -14.118330 -8.114768 3.742789 -47.774502 -19.856713 -4.169915 -53.106809 34.195373 -16.528314 0.000000 0.000000 0.000000 19.783458 -3.826160 -1.013612 55.959866 14.305508 -5.736945 17.915531 -47.151739 -5.901349 0.000000 0.000000 0.000000 
-0.001105 0.959967 0.035964 3.419264 -6.994752 -7.937616 10.921234 0.854161 24.311195 -15.405433 -1.903054 -50.550626 73.398473 25.415708 123.043651 0.000000 0.000000 0.000000 -14.873133 1.616890 20.921582 17.032876 5.177846 -45.620212 -99.112364 -30.973455 121.588806 0.000000 0.000000 0.000000 3.245753 0.463171 -5.165272 1.884565 2.050032 -52.040184 -0.204592 7.607575 59.197671 12.496681 2.067945 -87.130574 0.000000 0.000000 0.000000 -15.609136 -7.054206 3.902027 -45.829121 -19.913889 -5.118510 -58.248199 40.574426 -21.264305 0.000000 0.000000 0.000000 19.631937 -1.011954 0.456785 50.664427 15.180520 -6.274031 31.897361 -53.672128 -13.895705 0.000000 0.000000 0.000000 
-0.002220 0.939657 0.053825 3.358544 -7.357185 -7.804244 12.797950 0.739772 31.130026 -18.087425 -3.705334 -59.510498 78.937416 24.565480 124.601238 0.000000 0.000000 0.000000 -17.784523 3.044658 27.321170 20.311021 8.096262 -54.120047 -105.580145 -34.998181 119.461318 0.000000 0.000000 0.000000 3.625694 0.948221 -10.249281 3.933880 2.133754 -52.764446 -1.166967 10.353789 62.249821 17.065977 0.999470 -85.606724 0.000000 0.000000 0.000000 -12.826374 -4.178173 2.229001 -46.208539 -18.586424 -6.457590 -70.496586 48.829735 -32.567611 0.000000 0.000000 0.000000 20.490168 -1.850836 0.717196 48.233765 14.872473 -7.118174 41.806500 -63.423362 -21.994433 0.000000 0.000000 0.000000 
-0.003511 0.913654 0.067822 2.904575 -6.411982 -7.617176 14.689384 0.160122 37.049588 -20.075315 -5.985382 -66.603380 80.487265 26.257120 121.217259 0.000000 0.000000 0.000000 -20.053498 4.425845 33.837788 22.057170 10.641312 -63.720447 -105.388705 -34.295525 120.865897 0.000000 0.000000 0.000000 3.046584 1.281801 -14.832150 3.831772 2.069661 -53.696617 -0.614003 8.969369 67.311000 14.474902 1.468878 -90.135247 0.000000 0.000000 0.000000 -11.796097 -3.085656 2.020501 -44.362005 -18.646047 -7.534551 -84.707673 50.137374 -41.383764 0.000000 0.000000 0.000000 20.640110 -2.518197 0.536287 42.990532 13.859020 -8.260369 70.469759 -70.888595 -48.013383 0.000000 0.000000 0.000000 
-0.004978 0.886737 0.076602 2.716730 -6.131575 -7.856339 16.319415 -0.410627 41.384456 -22.777312 -8.552928 -71.599755 92.014073 27.728246 120.490992 0.000000 0.000000 0.000000 -21.720118 5.594759 37.934489 24.039978 13.107298 -69.971746 -114.178092 -37.455654 120.497875 0.000000 0.000000 0.000000 2.965242 1.441154 -16.667761 5.079535 2.437044 -57.257033 -0.709113 9.675721 72.004019 13.517106 1.074354 -89.167716 0.000000 0.000000 0.000000 -8.433004 -1.317827 1.076669 -44.501693 -16.951411 -8.947345 -97.282374 51.915266 -51.664535 0.000000 0.000000 0.000000 17.830623 -3.724704 0.143011 40.523819 12.546683 -9.062377 129.719588 -72.799810 -107.843723 0.000000 0.000000 0.000000 
-0.005963 0.857849 0.082832 2.486917 -4.996359 -7.698380 18.400261 -1.532642 43.742896 -25.039488 -11.251132 -75.353866 98.314526 28.113182 120.484636 0.000000 0.000000 0.000000 -22.758462 6.395574 42.210194 24.267204 14.678701 -77.294768 -121.723304 -36.464388 123.563147 0.000000 0.000000 0.000000 2.495882 1.593539 -19.765939 4.367238 2.683242 -62.161374 -0.761616 8.253110 81.932490 13.271944 1.377145 -97.019693 0.000000 0.000000 0.000000 -7.751113 -0.253279 0.930910 -40.814444 -15.927657 -11.199078 -109.512106 49.596255 -57.480343 0.000000 0.000000 0.000000 15.764167 -4.224271 0.259206 34.052684 14.337867 -9.702146 163.370087 -57.072041 -144.373103 0.000000 0.000000 0.000000 
-0.006541 0.831970 0.089105 2.645439 -3.898122 -6.759531 18.935475 -2.189486 45.491422 -25.766144 -13.049891 -79.011700 107.493908 27.804361 121.760776 0.000000 0.000000 0.000000 -23.250998 6.870932 45.757750 23.679969 15.542374 -83.997605 -127.818710 -38.691178 123.543630 0.000000 0.000000 0.000000 1.902721 1.719416 -23.511992 3.323607 2.553034 -64.292905 -1.226587 6.985050 86.858548 20.043441 0.858691 -98.652512 0.000000 0.000000 0.000000 -2.804089 1.418536 -0.431227 -41.785228 -12.031022 -13.527133 -117.727449 50.075156 -63.355143 0.000000 0.000000 0.000000 12.002695 -3.909386 0.163838 29.317230 14.086734 -9.596524 178.796193 -44.385118 -178.526281 0.000000 0.000000 0.000000 
